<svg width="7" height="4" viewBox="0 0 7 4" fill="none" xmlns="http://www.w3.org/2000/svg">
<rect width="7" height="4" fill="#DFDFDF"/>
<g id="&#240;&#159;&#159;&#161; &#208;&#161;&#208;&#190;&#208;&#183;&#208;&#180;&#208;&#176;&#208;&#189;&#208;&#184;&#208;&#181; &#208;&#191;&#209;&#128;&#208;&#190;&#209;&#132;&#208;&#184;&#208;&#187;&#209;&#143; / 1 &#208;&#158; &#209;&#129;&#208;&#181;&#208;&#177;&#208;&#181;" clip-path="url(#clip0_2831_35889)">
<rect width="1440" height="1895" transform="translate(-1214 -475)" fill="white"/>
<g id="Frame 1321315024">
<g id="Frame 1321315023">
<g id="Frame 1321315020">
<g id="Frame 1321315019">
<g id="Frame 1321315017">
<g id="Frame 1321315056">
<g id="&#208;&#191;&#209;&#128;&#208;&#190;&#209;&#132;&#208;&#184;&#208;&#187;&#209;&#140; &#209;&#128;&#208;&#181;&#208;&#179;&#208;&#184;&#209;&#129;&#209;&#130;&#209;&#128;&#208;&#176;&#209;&#134;&#208;&#184;&#209;&#143;" filter="url(#filter0_dddd_2831_35889)">
<rect x="-588" y="-98" width="614" height="258" rx="32" fill="white"/>
<g id="Frame 1321314796">
<g id="Frame 1321314795">
<g id="&#208;&#190;&#208;&#191;&#208;&#184;&#209;&#129;&#208;&#176;&#208;&#189;&#208;&#184;&#208;&#181; + &#209;&#128;&#208;&#176;&#208;&#183;&#208;&#178;&#208;&#181;&#209;&#128;&#208;&#189;&#209;&#131;&#209;&#130;&#209;&#140; &#208;&#188;&#208;&#184;&#208;&#189;&#208;&#184;">
<g id="Frame 9428">
<g id="Frame 9605">
<path id="Rectangle 11" d="M6 1L3.5 3L1 1" stroke="#7953C3" stroke-width="0.8"/>
</g>
</g>
</g>
</g>
</g>
</g>
</g>
</g>
</g>
</g>
</g>
</g>
</g>
<g id="Connector line">
<path id="Shape" d="M185.623 -433C184.795 -433 184.123 -432.328 184.123 -431.5C184.123 -430.672 184.795 -430 185.623 -430V-433ZM-1212.94 3451.06C-1212.35 3450.47 -1212.35 3449.53 -1212.94 3448.94L-1222.49 3439.39C-1223.07 3438.81 -1224.02 3438.81 -1224.61 3439.39C-1225.19 3439.98 -1225.19 3440.93 -1224.61 3441.51L-1216.12 3450L-1224.61 3458.49C-1225.19 3459.07 -1225.19 3460.02 -1224.61 3460.61C-1224.02 3461.19 -1223.07 3461.19 -1222.49 3460.61L-1212.94 3451.06ZM185.623 -430H274V-433H185.623V-430ZM299.5 -455.5V-597H296.5V-455.5H299.5ZM274 -622.5H-1361V-619.5H274V-622.5ZM-1386.5 -597V3426H-1383.5V-597H-1386.5ZM-1361 3451.5H-1214V3448.5H-1361V3451.5ZM-1386.5 3426C-1386.5 3440.08 -1375.08 3451.5 -1361 3451.5V3448.5C-1373.43 3448.5 -1383.5 3438.43 -1383.5 3426H-1386.5ZM-1361 -622.5C-1375.08 -622.5 -1386.5 -611.083 -1386.5 -597H-1383.5C-1383.5 -609.426 -1373.43 -619.5 -1361 -619.5V-622.5ZM299.5 -597C299.5 -611.083 288.083 -622.5 274 -622.5V-619.5C286.426 -619.5 296.5 -609.426 296.5 -597H299.5ZM274 -430C288.083 -430 299.5 -441.417 299.5 -455.5H296.5C296.5 -443.074 286.426 -433 274 -433V-430Z" fill="#B3B3B3"/>
</g>
<defs>
<filter id="filter0_dddd_2831_35889" x="-610.151" y="-114.303" width="658.302" height="302.302" filterUnits="userSpaceOnUse" color-interpolation-filters="sRGB">
<feFlood flood-opacity="0" result="BackgroundImageFix"/>
<feColorMatrix in="SourceAlpha" type="matrix" values="0 0 0 0 0 0 0 0 0 0 0 0 0 0 0 0 0 0 127 0" result="hardAlpha"/>
<feOffset dy="1.13351"/>
<feGaussianBlur stdDeviation="2.14681"/>
<feColorMatrix type="matrix" values="0 0 0 0 0.521569 0 0 0 0 0.368627 0 0 0 0 0.596078 0 0 0 0.0279017 0"/>
<feBlend mode="normal" in2="BackgroundImageFix" result="effect1_dropShadow_2831_35889"/>
<feColorMatrix in="SourceAlpha" type="matrix" values="0 0 0 0 0 0 0 0 0 0 0 0 0 0 0 0 0 0 127 0" result="hardAlpha"/>
<feOffset dy="2.86674"/>
<feGaussianBlur stdDeviation="5.42944"/>
<feColorMatrix type="matrix" values="0 0 0 0 0.521569 0 0 0 0 0.368627 0 0 0 0 0.596078 0 0 0 0.0399338 0"/>
<feBlend mode="normal" in2="effect1_dropShadow_2831_35889" result="effect2_dropShadow_2831_35889"/>
<feColorMatrix in="SourceAlpha" type="matrix" values="0 0 0 0 0 0 0 0 0 0 0 0 0 0 0 0 0 0 127 0" result="hardAlpha"/>
<feOffset dy="5.84789"/>
<feGaussianBlur stdDeviation="11.0755"/>
<feColorMatrix type="matrix" values="0 0 0 0 0.521569 0 0 0 0 0.368627 0 0 0 0 0.596078 0 0 0 0.0500662 0"/>
<feBlend mode="normal" in2="effect2_dropShadow_2831_35889" result="effect3_dropShadow_2831_35889"/>
<feColorMatrix in="SourceAlpha" type="matrix" values="0 0 0 0 0 0 0 0 0 0 0 0 0 0 0 0 0 0 127 0" result="hardAlpha"/>
<feOffset dy="5.84789"/>
<feGaussianBlur stdDeviation="11.0755"/>
<feColorMatrix type="matrix" values="0 0 0 0 0.521569 0 0 0 0 0.368627 0 0 0 0 0.596078 0 0 0 0.0500662 0"/>
<feBlend mode="normal" in2="effect3_dropShadow_2831_35889" result="effect4_dropShadow_2831_35889"/>
<feBlend mode="normal" in="SourceGraphic" in2="effect4_dropShadow_2831_35889" result="shape"/>
</filter>
<clipPath id="clip0_2831_35889">
<rect width="1440" height="1895" fill="white" transform="translate(-1214 -475)"/>
</clipPath>
</defs>
</svg>
